<svg enable-background="new 0 0 128 128" viewBox="0 0 128 128" xmlns="http://www.w3.org/2000/svg" xmlns:xlink="http://www.w3.org/1999/xlink"><linearGradient id="a" gradientUnits="userSpaceOnUse" x1="86.6973" x2="44.5393" y1="114.5446" y2="20.4987"><stop offset=".0021923" stop-color="#bbdefb"/><stop offset="1" stop-color="#e3f2fd"/></linearGradient><linearGradient id="b" gradientUnits="userSpaceOnUse" x1="64.4" x2="64.4" y1="80.876" y2="116.8"><stop offset=".1575" stop-color="#ffcc80"/><stop offset=".9978" stop-color="#ffa726"/></linearGradient><path d="m71.6 63.6c-1.6-.7-1.5-3.3.1-3.9 5.1-2.2 29.6-12.7 29.6-45.4l.6-5.7-75.8-.1.7 6c0 31.7 24.4 42.9 29.5 45.1 1.6.7 1.6 3.2 0 3.9-5.1 2.4-30.1 12.4-30.1 48.8l-.2 6.7 75.8.1-.1-6.8c.1-37-25-46.3-30.1-48.7z" fill="url(#a)"/><path d="m29.5 11.5 69.1.1-.3 2.4v.3c0 20.1-9.6 34.8-27.8 42.6-1.8.8-3 2.6-3 4.7s1.1 3.9 2.9 4.7c.3.1.6.3 1 .4 6.8 3 27.6 12.3 27.6 45.6v3.8l-69.8-.1.1-3.7v-.1c0-14.1 3.9-25.7 11.6-34.3 6.1-6.9 13.1-10 16.1-11.4.2-.1.5-.2.7-.3 1.8-.8 2.9-2.7 2.9-4.8s-1.2-3.9-3-4.7c-8.3-3.6-27.7-14.9-27.7-42.3 0-.1 0-.2 0-.3zm-3.4-3 .7 6c0 31.7 24.4 42.9 29.5 45.1 1.6.7 1.6 3.2 0 3.9-5.1 2.4-30.1 12.4-30.1 48.8l-.2 6.7 75.8.1-.1-6.8c0-37.1-25.1-46.3-30.2-48.7-1.6-.7-1.5-3.3.1-3.9 5.1-2.2 29.6-12.7 29.6-45.4l.6-5.7c.1 0-75.7-.1-75.7-.1z" fill="#424242" opacity=".2"/><path d="m25 4h78c3.3 0 6 2.7 6 6s-2.7 6-6 6h-78c-3.3 0-6-2.7-6-6s2.7-6 6-6z" fill="#795548"/><path d="m34.4 115.4 60 .1c0-16.1-5.4-26.2-11.1-32.5-1.9-2-4.5-3.2-7.3-3.2h-23.8c-3 0-5.7 1.3-7.7 3.6-5.3 6.2-10.1 16.2-10.1 32z" fill="url(#b)"/><path d="m103 7c1.7 0 3 1.4 3 3s-1.4 3-3 3h-78c-1.7 0-3-1.4-3-3s1.4-3 3-3zm0-3h-78c-3.3 0-6 2.7-6 6s2.7 6 6 6h78c3.3 0 6-2.7 6-6s-2.7-6-6-6z" fill="#424242" opacity=".2"/><path d="m75.9 82.8c1.9 0 3.8.8 5.1 2.2 6.3 6.9 9.8 16.1 10.3 27.5l-53.8-.1c.5-11.2 3.6-20.3 9.4-27.1 1.4-1.6 3.3-2.5 5.4-2.5zm.1-3h-23.7c-3 0-5.7 1.3-7.7 3.6-5.3 6.3-10.2 16.3-10.2 32l60 .1c0-16.1-5.4-26.2-11.1-32.5-1.9-2.1-4.6-3.2-7.3-3.2z" fill="#424242" opacity=".2"/><path d="m24.9 112.3h78.3c3.2 0 5.8 2.6 5.8 5.8s-2.6 5.8-5.8 5.8h-78.3c-3.2 0-5.9-2.6-5.9-5.8s2.6-5.8 5.9-5.8z" fill="#795548"/><path d="m103.1 115.3c1.6 0 2.8 1.3 2.8 2.8s-1.3 2.8-2.8 2.8h-78.2c-1.6 0-2.9-1.3-2.9-2.8s1.3-2.8 2.9-2.8zm0-3h-78.2c-3.2 0-5.9 2.6-5.9 5.8s2.6 5.8 5.9 5.8h78.3c3.2 0 5.8-2.6 5.8-5.8s-2.6-5.8-5.9-5.8z" fill="#424242" opacity=".2"/></svg>