<svg height="73" viewBox="0 0 73 73" width="73" xmlns="http://www.w3.org/2000/svg" xmlns:xlink="http://www.w3.org/1999/xlink"><mask id="a" fill="#fff"><rect fill="#fff" fill-rule="evenodd" height="69" rx="14" width="69"/></mask><g fill="none" fill-rule="evenodd" transform="translate(2 2)"><rect fill="#fff" fill-rule="nonzero" height="71" rx="14" stroke="#16161d" stroke-width="2" width="71" x="-1" y="-1"/><rect height="71" rx="14" stroke="#16161d" stroke-width="2" width="71" x="-1" y="-1"/><g mask="url(#a)"><g fill-rule="nonzero" transform="translate(-5 7)"><path d="m28.09 3.06691406h23.82v16.70062504h-23.82z" fill="#76e2f8"/><path d="m40 3.06691406h11.91v16.70062504h-11.91z" fill="#00c0f1"/><path d="m24.1849609.08660156h-24.1849609v19.68093754h32.8125391v-11.05335941c0-4.75722657-3.8703516-8.62757813-8.6275782-8.62757813z" fill="#725d57"/><path d="m55.8150391.08660156c-4.7573438 0-8.6275782 3.87035156-8.6275782 8.62757813v11.05335941h22.8125391v-19.68093754z" fill="#725d57"/><path d="m55.8150391.08660156c-4.7573438 0-8.6275782 3.87035156-8.6275782 8.62757813v11.05335941h32.8125391v-19.68093754z" fill="#504541"/><path d="m24.5741406 16.2519141h30.8517188v25.145039h-30.8517188z" fill="#b2f1fa"/><path d="m40 16.2519141h15.4258594v25.145039h-15.4258594z" fill="#76e2f8"/><path d="m20.6691016 13.2714844h-20.6691016v28.1253515h29.2966797v-19.4976562c0-4.7573438-3.8703516-8.6276953-8.6275781-8.6276953z" fill="#504541"/><path d="m59.3308984 13.2714844c-4.7573437 0-8.6275781 3.8703515-8.6275781 8.6275781v19.4977734h19.2966797v-28.1253515z" fill="#504541"/><path d="m59.3308984 13.2714844c-4.7573437 0-8.6275781 3.8703515-8.6275781 8.6275781v19.4977734h29.2966797v-28.1253515z" fill="#3d3532"/><path d="m0 37.8812109h80v27.5790625h-80z" fill="#76e2f8"/><path d="m40 37.8812109h40v27.5790625h-40z" fill="#00c0f1"/><g fill="#b2f1fa"><path d="m61.4067578 44.9129297h8.5932422v3.515625h-8.5932422z"/><path d="m0 44.9129297h15.0773828v3.515625h-15.0773828z"/><path d="m20.7029688 44.9129297h35.2346484v3.515625h-35.2346484z"/></g><g fill="#76e2f8" transform="translate(33.4375 23.4375)"><path d="m.11695313.08039062h3.51562499v6.74613282h-3.51562499z"/><path d="m9.49253906 6.29167969h3.51562504v5.22257811h-3.51562504z"/><path d="m27.9692578 21.4754297h18.5932422v3.515625h-18.5932422z"/></g><path d="m42.9300391 29.7291797h3.515625v5.2225781h-3.515625z" fill="#00c0f1"/><path d="m40 44.9129297h15.9376172v3.515625h-15.9376172z" fill="#76e2f8"/><path d="m3 52.9129297h15.0773828v3.515625h-15.0773828z" fill="#b2f1fa"/><path d="m23.7029688 52.9129297h35.2346484v3.515625h-35.2346484z" fill="#b2f1fa"/><path d="m64.4067578 52.9129297h18.5932422v3.515625h-18.5932422z" fill="#76e2f8"/><path d="m43 52.9129297h15.9376172v3.515625h-15.9376172z" fill="#76e2f8"/></g></g></g></svg>